<?xml version="1.0" standalone="no"?>
<!DOCTYPE svg PUBLIC "-//W3C//DTD SVG 20010904//EN"
 "http://www.w3.org/TR/2001/REC-SVG-20010904/DTD/svg10.dtd">
<svg version="1.0" xmlns="http://www.w3.org/2000/svg"
 width="260.000000pt" height="260.000000pt" viewBox="0 0 260.000000 260.000000"
 preserveAspectRatio="xMidYMid meet">
<metadata>
Created by potrace 1.11, written by Peter Selinger 2001-2013
</metadata>
<g transform="translate(0.000000,260.000000) scale(0.100000,-0.100000)"
fill="#000000" stroke="none">
<path d="M1388 2342 c-27 -18 -125 -117 -159 -160 -11 -15 -35 -43 -52 -62
-18 -19 -60 -73 -94 -120 -34 -47 -66 -89 -70 -95 -5 -5 -28 -41 -53 -80 -25
-38 -48 -71 -52 -73 -5 -2 -8 -10 -8 -18 0 -8 -4 -14 -10 -14 -5 0 -10 -4 -10
-9 0 -11 -185 -318 -205 -341 -8 -9 -13 -19 -10 -22 3 -3 -9 -4 -26 -2 -37 5
-52 14 -23 14 43 0 93 64 55 69 -70 10 -160 -8 -195 -38 -42 -37 -119 -182
-136 -259 -12 -52 7 -100 47 -114 18 -7 33 -14 34 -18 0 -3 2 -14 3 -25 2 -11
5 -25 7 -31 6 -16 -43 -114 -54 -107 -6 3 -7 1 -4 -5 13 -20 -5 -42 -49 -61
-32 -15 -53 -33 -76 -70 -17 -28 -34 -51 -38 -51 -4 0 -7 -6 -7 -12 0 -14 -53
-129 -63 -138 -3 -3 -5 -9 -5 -15 -1 -5 -9 -36 -19 -68 -18 -59 -27 -159 -14
-151 5 3 8 1 8 -5 0 -6 16 -15 36 -20 28 -8 40 -7 50 4 8 7 17 15 22 17 12 4
106 150 109 168 1 8 11 22 22 32 12 9 21 23 21 31 0 8 9 26 20 39 10 14 16 28
13 32 -3 3 -2 6 4 6 19 0 22 -13 5 -26 -9 -8 -12 -14 -5 -14 6 0 15 5 18 10 5
8 12 7 23 -2 9 -7 5 2 -8 20 -21 28 -22 34 -10 42 9 5 19 5 27 -2 8 -6 16 -8
20 -4 3 3 1 6 -5 6 -6 0 -9 7 -6 15 5 13 9 13 22 3 14 -12 14 -10 2 11 -12 23
-13 24 -24 5 -6 -10 -16 -20 -23 -21 -7 -2 -4 12 9 35 25 44 34 54 25 30 -4
-13 -2 -15 10 -11 12 5 14 3 8 -7 -5 -9 -4 -11 4 -6 8 5 7 13 -3 28 -12 17
-13 25 -3 42 6 12 10 25 9 29 -1 5 2 6 8 2 9 -6 14 8 11 28 -1 5 4 5 10 1 9
-5 10 -2 6 9 -7 20 -3 21 25 6 15 -8 19 -8 14 0 -4 6 -2 11 5 11 7 0 5 8 -6
20 -10 11 -13 20 -8 20 6 0 16 -7 23 -15 7 -8 18 -15 24 -14 7 0 6 2 -2 6 -6
2 -9 10 -6 15 4 6 2 8 -3 5 -6 -4 -16 0 -23 8 -9 11 -9 15 -1 15 7 0 10 4 6 9
-3 5 2 17 11 25 8 9 13 16 9 16 -13 0 37 54 53 57 45 10 72 10 72 1 0 -6 7 -5
15 2 13 10 19 10 33 -4 10 -9 24 -16 31 -16 7 0 9 -5 6 -11 -5 -7 -14 -4 -26
7 -14 13 -19 14 -19 4 0 -11 -3 -11 -11 -3 -9 9 -18 7 -37 -5 -21 -14 -25 -14
-18 -2 7 12 6 12 -4 3 -9 -8 -9 -16 -1 -30 10 -17 10 -17 11 0 0 10 5 15 10
12 6 -4 8 -10 5 -15 -3 -4 2 -11 10 -14 13 -4 13 -2 5 14 -14 26 -13 35 4 21
10 -8 16 -9 21 -1 3 5 11 10 18 10 8 0 8 -3 -1 -12 -7 -7 -12 -19 -11 -28 0
-9 4 -6 9 7 6 15 15 21 25 17 8 -3 15 -2 15 3 0 5 7 10 15 10 8 0 15 -4 15 -9
0 -4 -4 -8 -8 -8 -5 0 -9 -7 -9 -16 0 -15 1 -15 12 0 7 8 15 13 19 9 4 -4 4 1
0 10 -4 12 -2 17 6 15 7 -2 15 3 17 10 6 14 -18 12 -29 -3 -5 -6 -8 -5 -8 3 0
6 -5 12 -11 12 -5 0 -7 -5 -3 -12 4 -7 3 -8 -5 -4 -6 4 -8 12 -5 18 5 7 1 9
-9 5 -9 -3 -19 -3 -21 2 -3 4 8 7 25 7 16 0 29 -4 29 -9 0 -5 6 -4 14 2 18 15
45 -14 28 -31 -6 -6 -8 -17 -5 -24 3 -8 -1 -14 -10 -14 -21 0 -31 -17 -16 -26
8 -4 9 -3 5 4 -4 7 -2 12 3 12 6 0 11 -7 11 -15 0 -8 -4 -15 -10 -15 -5 0 -6
-7 -3 -17 4 -10 2 -14 -4 -10 -5 3 -9 -4 -8 -16 1 -12 -6 -48 -16 -79 -9 -32
-15 -58 -12 -58 3 0 0 -7 -7 -15 -7 -8 -10 -15 -7 -15 3 0 1 -17 -5 -37 -5
-21 -9 -49 -9 -62 1 -13 -5 -31 -11 -39 -11 -13 -11 -14 1 -8 9 6 12 5 9 -5
-3 -8 -1 -24 3 -37 6 -15 5 -21 -1 -17 -6 4 -2 -9 9 -28 15 -26 17 -37 8 -47
-9 -9 -8 -11 3 -8 8 2 14 -3 12 -10 -1 -8 2 -11 8 -7 5 3 10 3 10 -2 0 -14 46
-30 66 -23 24 9 46 1 37 -13 -3 -6 -1 -7 6 -3 7 4 10 13 8 19 -2 7 12 25 32
41 20 15 35 33 33 40 -2 7 1 6 10 -2 11 -11 11 -14 0 -21 -11 -7 -11 -9 1 -14
24 -9 27 3 11 35 -9 17 -11 27 -5 24 6 -4 11 -3 11 3 0 5 19 33 42 63 23 29
40 55 38 58 -3 3 6 7 19 8 18 3 21 6 10 12 -11 7 -9 13 8 32 24 25 36 102 21
130 -14 28 -35 22 -83 -23 -25 -23 -53 -48 -64 -55 -17 -12 -19 -12 -16 4 2 9
4 18 5 20 2 1 4 11 5 22 1 11 3 21 5 23 2 3 10 37 14 62 2 11 4 23 5 28 0 4 6
7 13 7 9 0 9 -3 0 -12 -7 -7 -12 -17 -12 -23 1 -12 23 25 26 43 1 6 -1 10 -6
7 -5 -3 -7 2 -6 11 2 10 14 18 29 20 18 2 25 -1 21 -8 -4 -6 -2 -8 4 -5 5 4 9
13 8 20 -3 20 -17 38 -26 32 -15 -9 -19 23 -4 43 8 11 11 28 7 37 -6 16 -4 16
15 0 11 -10 18 -24 15 -32 -4 -9 -8 -11 -12 -4 -4 6 -11 3 -19 -9 -10 -16 -9
-18 8 -15 13 3 20 -2 21 -13 0 -14 2 -13 9 3 5 11 9 16 10 10 0 -5 7 -1 16 10
13 17 16 18 24 5 6 -9 10 -10 10 -3 0 7 -9 17 -20 23 -11 6 -20 7 -20 3 0 -12
-20 20 -20 32 0 6 5 3 10 -5 5 -8 10 -11 10 -6 0 4 12 1 26 -9 15 -10 23 -12
19 -4 -6 8 -4 11 7 7 9 -4 15 0 15 8 0 9 -8 12 -24 10 -12 -3 -25 -1 -27 3 -3
4 5 8 16 8 21 2 43 17 43 31 1 4 6 17 13 28 6 12 8 24 5 28 -3 3 0 6 7 6 7 0
11 3 7 6 -8 8 21 64 33 64 5 0 9 10 9 23 -1 12 7 40 17 62 22 49 22 53 11 87
-5 16 -18 29 -33 32 -14 4 -22 11 -18 17 3 6 -3 5 -14 -2 -10 -7 -27 -9 -36
-6 -14 6 -15 10 -4 29 7 13 11 27 10 32 -2 4 3 14 9 22 6 8 9 14 6 14 -3 0 1
16 9 35 8 19 11 35 8 35 -4 0 -1 6 5 13 6 8 8 17 4 20 -3 4 2 9 11 13 9 3 16
10 16 16 0 5 -6 6 -12 2 -10 -6 -10 -5 -1 8 7 8 10 18 6 21 -3 4 2 7 13 7 10
0 15 4 9 8 -5 4 -11 13 -13 20 -2 10 3 10 20 -2 26 -18 38 -20 38 -6 0 6 -3 9
-7 9 -32 -5 -51 24 -32 47 6 8 8 14 4 14 -4 0 7 13 24 29 20 19 29 35 26 50
-2 11 0 21 5 21 13 0 20 29 8 36 -6 4 -8 3 -5 -3 4 -6 0 -16 -7 -23 -8 -6 -13
-20 -11 -31 2 -11 0 -17 -5 -14 -6 3 -7 0 -4 -8 3 -8 -2 -17 -11 -21 -11 -4
-14 -2 -8 7 4 6 9 20 10 30 2 10 10 32 19 48 8 17 17 43 19 57 1 15 3 30 4 35
0 4 11 8 24 8 16 1 18 2 5 6 -10 2 -18 9 -18 14 0 6 10 8 23 4 21 -6 21 -6 3
9 -20 16 -20 16 0 32 10 8 13 13 7 9 -16 -8 -16 5 -2 42 7 15 11 39 10 52 0
14 5 28 11 33 10 6 10 8 0 8 -10 0 -10 5 -1 21 6 12 7 19 1 15 -5 -3 -12 14
-15 38 -7 51 -25 93 -42 100 -7 2 -23 -3 -37 -12z m-194 -475 c-3 -9 -11 -17
-18 -17 -6 0 -4 -5 4 -11 13 -9 12 -10 -2 -5 -22 7 -33 -10 -12 -18 9 -4 12
-11 7 -18 -4 -7 -8 -16 -9 -20 -1 -5 -2 -9 -4 -10 -1 -2 -3 -11 -5 -21 -2 -10
-7 -26 -11 -35 -4 -9 -8 -21 -10 -27 -1 -5 -8 -23 -15 -40 -7 -16 -13 -33 -13
-37 -1 -3 -4 -9 -8 -13 -4 -4 -4 -14 -1 -23 5 -11 3 -13 -7 -7 -9 5 -11 4 -6
-4 4 -7 4 -20 0 -29 -4 -9 -8 -23 -10 -30 -1 -8 -6 -21 -10 -30 -9 -22 -11
-29 -13 -48 0 -8 -5 -12 -11 -9 -6 3 -7 -1 -4 -10 6 -14 -2 -16 -65 -14 -39 1
-74 0 -77 -4 -3 -3 -12 -3 -20 0 -10 4 -9 11 8 34 12 15 26 25 32 22 6 -4 5 1
-3 10 -7 9 -9 17 -4 17 5 0 21 24 36 54 23 46 31 53 51 49 13 -3 27 1 31 7 5
9 2 10 -13 6 -11 -4 -23 -3 -25 1 -7 12 31 56 42 49 5 -4 12 -2 16 4 4 6 11 8
16 5 5 -4 9 -2 9 3 0 6 -7 13 -16 16 -15 6 -14 9 2 34 10 15 23 36 29 47 24
45 41 65 53 65 7 0 10 4 7 10 -3 5 3 17 14 27 11 9 17 21 14 26 -4 6 -1 7 7 2
10 -6 12 -4 6 11 -5 14 -4 16 4 8 6 -6 8 -18 4 -27z m-150 -218 c-6 -11 -24
-2 -24 11 0 5 7 7 15 4 8 -4 12 -10 9 -15z m-592 -671 c-2 -15 -8 -26 -12 -23
-12 8 -9 52 4 52 8 0 10 -11 8 -29z m732 -23 c-3 -6 -11 -12 -18 -12 -8 0 -12
6 -10 12 3 6 11 12 18 12 8 0 12 -6 10 -12z m-44 -54 c3 -1 -1 -5 -9 -10 -16
-10 -44 -3 -36 9 3 5 13 7 23 5 9 -2 19 -4 22 -4z m-570 -81 c0 -5 -4 -10 -10
-10 -5 0 -10 5 -10 10 0 6 5 10 10 10 6 0 10 -4 10 -10z"/>
<path d="M1150 1799 c0 -5 -4 -8 -9 -5 -4 3 -16 -3 -26 -14 -10 -11 -14 -20
-10 -20 4 0 0 -10 -11 -22 -10 -12 -13 -18 -6 -14 6 4 12 2 12 -3 0 -6 -6 -11
-14 -11 -8 0 -17 -4 -20 -8 -2 -4 4 -8 15 -8 10 0 19 4 19 8 0 4 7 5 15 2 15
-6 20 5 16 35 -2 8 3 10 11 5 7 -4 10 -4 6 1 -4 4 -3 14 3 22 6 7 8 13 4 13
-4 0 -2 7 5 15 9 10 9 15 1 15 -6 0 -11 -5 -11 -11z m-21 -45 c-13 -14 -17
-24 -10 -24 7 0 9 -5 5 -11 -4 -8 -9 -7 -15 2 -4 8 -3 19 3 26 6 7 7 13 3 13
-4 0 -2 7 5 15 7 8 17 12 22 9 5 -3 -1 -17 -13 -30z"/>
<path d="M1075 1680 c-3 -5 -1 -10 4 -10 6 0 11 5 11 10 0 6 -2 10 -4 10 -3 0
-8 -4 -11 -10z"/>
<path d="M1100 1678 c0 -4 4 -8 9 -8 6 0 12 4 15 8 3 5 -1 9 -9 9 -8 0 -15 -4
-15 -9z"/>
<path d="M1087 1653 c-10 -10 -8 -23 4 -23 5 0 8 4 5 9 -4 5 0 12 6 14 7 3 8
6 2 6 -6 1 -14 -2 -17 -6z"/>
<path d="M1017 1623 c-14 -13 -7 -22 15 -18 24 5 49 25 31 25 -7 0 -15 -5 -19
-11 -5 -8 -8 -8 -13 0 -4 6 -10 8 -14 4z"/>
<path d="M1066 1605 c-11 -8 -15 -15 -9 -15 6 0 16 7 23 15 16 19 11 19 -14 0z"/>
<path d="M1026 1564 c-11 -8 -16 -14 -10 -14 13 0 39 18 34 24 -3 2 -14 -2
-24 -10z"/>
<path d="M976 1551 c4 -15 2 -21 -4 -17 -6 3 -14 1 -18 -5 -4 -7 -3 -9 4 -5 6
3 16 -2 22 -11 7 -12 10 -13 7 -3 -2 8 0 23 5 34 7 12 7 16 0 12 -6 -3 -13 0
-16 6 -3 7 -3 2 0 -11z"/>
<path d="M1001 1524 c0 -11 3 -14 6 -6 3 7 2 16 -1 19 -3 4 -6 -2 -5 -13z"/>
<path d="M931 1483 c-10 -26 -10 -27 4 -9 8 11 15 23 15 28 0 15 -7 8 -19 -19z"/>
<path d="M976 1482 c-2 -4 -1 -14 4 -22 7 -11 9 -9 7 8 -1 24 -3 26 -11 14z"/>
<path d="M950 1471 c0 -6 4 -13 10 -16 6 -3 7 1 4 9 -7 18 -14 21 -14 7z"/>
<path d="M940 1440 c8 -5 20 -10 25 -10 6 0 3 5 -5 10 -8 5 -19 10 -25 10 -5
0 -3 -5 5 -10z"/>
<path d="M890 1415 c-7 -9 -10 -18 -6 -22 3 -3 6 -1 6 6 0 7 7 11 14 8 10 -4
13 -1 9 9 -6 18 -8 18 -23 -1z"/>
<path d="M920 1426 c0 -2 7 -9 15 -16 13 -11 14 -10 9 4 -5 14 -24 23 -24 12z"/>
<path d="M2027 2170 c-180 -38 -354 -147 -423 -266 -27 -45 -74 -177 -74 -206
0 -10 -4 -18 -9 -18 -4 0 -6 -12 -3 -26 3 -15 1 -24 -4 -21 -5 3 -8 -19 -8
-49 1 -29 -1 -52 -5 -50 -3 2 -5 -22 -4 -55 2 -41 -2 -59 -10 -59 -8 0 -7 -3
2 -9 8 -5 12 -19 9 -35 -3 -14 -1 -27 3 -28 5 -2 10 -12 11 -23 4 -25 45 -85
71 -104 10 -7 16 -20 12 -28 -4 -13 -3 -14 9 -4 15 13 19 10 41 -34 6 -11 19
-21 30 -22 18 -3 17 -1 -2 9 -13 6 -23 15 -23 20 0 12 47 -20 54 -37 3 -8 1
-17 -4 -20 -4 -3 -10 0 -12 7 -3 8 -6 6 -10 -4 -6 -14 7 -17 32 -8 3 1 9 2 14
1 5 -1 4 5 -4 13 -7 9 -8 16 -2 16 13 0 23 -26 16 -45 -4 -8 -1 -15 6 -15 6 0
9 4 6 9 -10 15 32 19 59 5 14 -7 28 -13 32 -13 3 0 11 -10 17 -22 6 -12 15
-21 20 -20 5 2 12 -3 16 -9 4 -7 13 -9 19 -6 6 4 9 12 5 17 -3 5 -10 7 -15 4
-5 -4 -9 -1 -9 4 0 6 -5 11 -11 11 -5 0 -7 -5 -3 -12 5 -7 3 -8 -5 -3 -24 14
5 27 32 14 31 -14 35 -33 10 -49 -16 -10 -16 -10 2 -8 13 2 19 -2 17 -11 -2
-9 3 -11 13 -7 10 3 18 -1 23 -12 7 -17 8 -17 26 2 17 17 17 19 2 13 -22 -9
-50 12 -53 38 -1 11 0 14 3 8 3 -7 10 -13 15 -13 5 0 21 -7 35 -16 24 -16 24
-17 7 -37 -18 -19 -17 -20 4 -8 20 10 25 8 45 -20 13 -17 23 -34 24 -37 0 -4
4 -15 8 -25 5 -9 5 -24 2 -33 -5 -14 -9 -14 -24 -3 -15 13 -16 12 -4 -2 11
-14 7 -23 -27 -57 -46 -46 -147 -99 -206 -108 -69 -10 -335 -13 -335 -3 0 5 4
9 9 9 12 0 26 39 22 60 -4 22 -21 30 -68 30 -37 0 -49 -6 -88 -43 -25 -24 -48
-41 -52 -38 -3 3 -3 0 1 -7 7 -12 -22 -92 -33 -92 -4 0 -7 -12 -7 -27 -3 -57
-10 -103 -17 -109 -4 -4 -2 -13 4 -20 6 -7 11 -26 11 -43 1 -17 5 -28 10 -25
4 3 8 -1 8 -10 0 -8 -6 -17 -12 -20 -7 -3 -3 -3 10 0 12 3 22 1 22 -5 0 -6 9
-20 20 -31 11 -11 20 -17 20 -14 0 3 13 -4 29 -15 15 -11 32 -17 36 -13 5 4 5
1 1 -6 -6 -9 -1 -11 18 -8 15 3 24 1 21 -5 -4 -5 -11 -6 -17 -3 -6 4 -3 -4 8
-18 10 -14 21 -24 23 -22 2 2 -2 11 -10 21 -12 15 -12 16 4 10 11 -4 16 -3 12
3 -3 6 -1 10 4 10 6 0 11 -6 11 -14 0 -17 28 -41 37 -32 4 3 1 12 -7 19 -10
10 -11 9 -5 -2 6 -10 4 -12 -4 -7 -9 6 -9 11 0 22 14 17 43 -1 32 -20 -4 -6 1
-4 11 4 10 8 24 15 32 16 19 3 29 -15 15 -29 -7 -7 -11 -7 -11 -1 0 6 -7 11
-16 11 -12 0 -10 -5 7 -18 15 -11 29 -14 39 -10 8 5 21 6 28 4 6 -3 12 -1 12
4 0 5 9 9 20 10 13 1 18 -2 13 -10 -4 -7 0 -6 10 2 14 11 20 11 34 0 11 -10
14 -10 9 -1 -4 7 -1 12 8 12 9 0 16 5 16 10 0 12 -22 9 -32 -5 -5 -6 -8 -5 -8
4 0 10 -3 11 -14 2 -11 -9 -16 -9 -21 0 -6 8 -10 7 -16 -2 -6 -10 -9 -11 -9
-1 0 6 -5 12 -11 12 -5 0 -8 -4 -4 -9 3 -5 0 -13 -6 -17 -7 -4 -9 -3 -5 4 3 6
2 14 -4 17 -6 4 -9 1 -8 -6 2 -6 -3 -14 -10 -16 -11 -4 -12 -1 -3 15 8 15 19
19 56 17 27 -1 45 3 45 9 0 6 4 5 9 -3 6 -9 11 -10 15 -2 4 6 11 9 16 6 5 -3
11 -1 15 4 3 5 15 7 28 5 12 -3 28 -6 35 -6 6 -1 12 -5 12 -9 0 -13 -18 -20
-24 -10 -11 18 -39 4 -42 -20 -2 -13 0 -19 2 -12 3 7 12 9 20 6 7 -3 11 -10 7
-16 -4 -6 -1 -7 7 -2 10 6 9 11 -4 21 -9 6 -13 15 -8 18 5 3 12 2 16 -1 11
-11 45 -13 51 -3 3 6 -1 7 -10 4 -11 -5 -14 -2 -9 9 3 9 12 13 20 10 8 -3 14
0 14 7 0 9 3 10 14 1 10 -9 16 -8 26 4 7 8 18 15 25 15 7 0 16 7 19 16 9 24 7
31 -5 12 -6 -11 -16 -15 -26 -11 -12 5 -14 3 -8 -8 4 -8 5 -11 0 -7 -4 4 -14
3 -22 -3 -7 -6 -13 -8 -13 -4 0 4 -7 2 -15 -5 -12 -10 -15 -10 -15 1 0 10 -2
11 -8 2 -5 -8 -13 -9 -22 -3 -12 8 -11 10 5 11 11 1 26 1 34 0 7 -2 10 2 7 8
-4 6 2 8 14 6 11 -2 20 0 20 4 0 8 41 23 56 21 3 -1 12 7 20 17 7 10 14 14 14
8 0 -5 5 -3 11 5 10 13 10 13 6 0 -4 -12 2 -15 22 -14 14 1 27 3 29 4 1 1 8 3
15 4 6 1 11 9 9 18 -2 12 3 16 18 13 11 -2 18 0 15 5 -3 5 4 15 15 23 18 12
18 15 5 20 -16 7 -16 27 0 39 6 4 10 13 10 20 0 7 11 18 24 25 14 6 30 22 37
35 8 13 13 17 14 9 0 -8 3 -12 6 -8 3 3 2 13 -3 22 -8 14 -12 12 -23 -14 -7
-17 -16 -31 -21 -31 -4 0 1 22 13 50 13 31 25 47 32 43 6 -4 4 2 -4 12 -9 12
-10 16 -2 11 9 -6 11 -1 8 18 -3 14 0 27 5 27 5 1 13 2 18 3 5 0 13 5 18 9 4
5 3 8 -2 7 -26 -6 -37 1 -30 17 4 10 9 38 11 62 3 25 10 51 17 60 9 12 9 13 0
7 -10 -5 -13 3 -14 31 -1 38 -2 45 -14 93 -4 14 -8 33 -8 42 -1 9 -5 14 -9 12
-4 -3 -8 -2 -9 3 -2 28 -9 45 -23 59 -15 15 -20 29 -17 47 1 5 -3 6 -8 3 -5
-4 -20 8 -32 26 -13 18 -28 36 -33 40 -30 18 -55 46 -48 53 4 5 2 5 -4 2 -6
-3 -22 5 -37 19 -14 13 -31 24 -37 24 -5 0 -10 3 -10 8 0 4 -10 12 -23 18 -46
21 -112 59 -118 67 -3 5 -10 9 -15 9 -20 1 -53 21 -48 29 3 5 -2 6 -10 3 -9
-3 -16 -1 -16 6 0 6 -4 9 -8 6 -4 -2 -19 5 -32 16 -14 11 -20 18 -15 15 6 -3
16 2 24 10 12 13 11 14 -6 9 -15 -5 -19 -1 -18 21 0 14 6 28 13 31 6 2 12 8
12 13 0 6 -4 7 -10 4 -5 -3 -10 -2 -10 3 0 6 7 13 16 16 8 3 13 10 10 15 -8
12 19 33 29 23 5 -4 5 2 1 13 -4 11 -4 16 0 12 4 -3 16 3 26 16 22 25 46 28
70 9 14 -12 20 -11 42 3 29 19 34 27 11 19 -10 -4 -13 -2 -10 8 7 18 47 16 53
-2 3 -8 0 -10 -8 -5 -9 5 -11 4 -6 -4 12 -18 28 -2 20 21 -4 13 -2 18 4 14 6
-3 13 -2 17 4 3 5 11 10 16 10 5 0 2 -12 -7 -27 -12 -20 -8 -17 17 10 19 21
38 35 42 31 4 -4 0 -12 -9 -18 -16 -12 -10 -46 9 -46 7 0 7 4 -1 12 -15 15
-16 32 -2 23 9 -6 14 8 11 28 -1 10 11 9 29 -3 11 -7 11 -10 2 -10 -7 0 -11
-4 -8 -9 4 -5 0 -11 -6 -14 -7 -3 -3 -4 9 -4 12 1 19 5 16 10 -2 4 1 14 7 23
10 11 16 12 29 2 9 -7 13 -8 9 -4 -4 5 -3 15 3 22 7 8 7 14 -1 19 -15 9 -43
-2 -35 -14 3 -5 1 -12 -5 -16 -5 -3 -10 -1 -10 4 0 6 -5 10 -11 9 -6 -2 -13 5
-14 16 -3 14 -1 16 8 7 13 -13 31 -15 23 -3 -3 5 13 9 35 9 41 1 62 -13 35
-23 -9 -3 -16 -12 -16 -19 0 -6 -9 -20 -20 -30 -11 -10 -20 -24 -20 -32 0 -7
-5 -13 -10 -13 -6 0 -9 -6 -8 -12 2 -7 -3 -12 -10 -10 -9 2 -10 -3 -3 -16 5
-10 6 -24 1 -32 -9 -14 22 -50 43 -50 5 0 32 23 59 50 27 28 53 50 59 50 5 0
8 3 8 8 -3 20 3 23 18 11 14 -12 16 -12 11 2 -4 10 6 23 29 39 36 25 83 35 83
18 0 -5 5 -6 11 -2 8 4 7 9 -2 15 -7 4 -17 5 -21 3 -4 -3 -8 -1 -8 3 0 14 38
34 45 23 3 -6 -2 -10 -11 -10 -10 0 -15 -3 -11 -6 3 -4 13 -4 22 0 13 5 14 10
4 27 -10 19 -9 21 6 15 15 -5 16 -4 5 9 -15 18 0 21 18 3 9 -9 10 -6 7 12 -2
12 -7 25 -11 29 -4 3 -4 -2 -1 -12 4 -11 3 -16 -4 -12 -5 4 -7 15 -4 25 3 10
8 29 10 41 3 12 10 26 17 31 10 6 10 8 1 8 -7 0 -13 4 -13 10 0 5 6 7 14 4 8
-3 17 -1 20 4 3 5 -2 9 -10 8 -19 -1 -28 30 -12 40 6 4 5 10 -3 15 -11 7 -11
9 -1 9 10 0 10 5 1 21 -9 17 -8 20 3 14 10 -6 11 -5 1 6 -7 7 -13 21 -13 31 0
29 -67 86 -118 101 -68 21 -203 19 -305 -3z m1 -436 c-15 -17 -25 -21 -33 -14
-9 7 -14 6 -18 -4 -4 -9 -15 -13 -27 -11 -11 2 -20 0 -20 -6 0 -5 -4 -9 -9 -9
-5 0 -8 6 -7 13 1 6 4 12 7 12 3 0 13 6 22 13 9 8 21 11 26 8 5 -4 12 -2 16 4
4 6 11 8 16 5 5 -4 9 -2 9 2 0 5 9 9 19 10 19 2 19 1 -1 -23z m102 6 c0 -5 -2
-10 -4 -10 -3 0 -8 5 -11 10 -3 6 -1 10 4 10 6 0 11 -4 11 -10z m-235 -47 c-4
-10 -8 -25 -9 -32 -4 -23 -24 -24 -35 -3 -8 15 -7 23 4 32 12 10 13 8 10 -9
-2 -11 0 -23 4 -25 4 -3 8 1 9 9 1 8 3 22 4 30 1 8 6 15 11 15 5 0 6 -8 2 -17z
m238 -1325 c-9 -10 -20 -16 -27 -15 -6 1 -10 -6 -10 -15 1 -10 -2 -16 -6 -13
-5 3 -11 1 -15 -5 -9 -14 -22 -12 -28 4 -3 8 2 20 11 28 13 11 14 11 8 -1 -6
-9 -5 -12 3 -10 7 3 13 9 13 14 0 18 19 34 34 28 10 -4 12 0 7 13 -6 16 -5 17
9 4 14 -13 15 -17 1 -32z"/>
<path d="M1996 1728 c3 -5 10 -6 15 -3 13 9 11 12 -6 12 -8 0 -12 -4 -9 -9z"/>
<path d="M1946 1722 c-3 -5 1 -9 9 -9 8 0 15 4 15 9 0 4 -4 8 -9 8 -6 0 -12
-4 -15 -8z"/>
<path d="M2096 372 c-3 -5 1 -9 9 -9 8 0 12 4 9 9 -3 4 -7 8 -9 8 -2 0 -6 -4
-9 -8z"/>
<path d="M1475 2080 c3 -5 0 -10 -7 -12 -8 -3 -6 -7 5 -11 10 -4 16 -2 14 6
-1 7 5 11 13 9 8 -2 11 0 7 4 -11 11 -38 14 -32 4z"/>
<path d="M1477 2033 c-10 -9 -9 -23 1 -23 5 0 9 7 9 15 0 17 -1 18 -10 8z"/>
<path d="M2465 1960 c3 -5 8 -10 11 -10 2 0 4 5 4 10 0 6 -5 10 -11 10 -5 0
-7 -4 -4 -10z"/>
<path d="M1424 1949 c-3 -6 -1 -16 5 -22 9 -9 11 -8 5 6 -5 13 -2 16 10 11 9
-3 16 -4 16 -1 0 11 -30 16 -36 6z"/>
<path d="M2455 1880 c-3 -5 -1 -10 4 -10 6 0 11 5 11 10 0 6 -2 10 -4 10 -3 0
-8 -4 -11 -10z"/>
<path d="M2470 1851 c0 -7 -5 -9 -12 -5 -7 5 -8 3 -3 -5 5 -9 10 -10 18 -2 6
6 8 14 4 18 -4 3 -7 1 -7 -6z"/>
<path d="M1380 1746 c0 -7 40 -14 44 -7 3 4 -6 8 -20 9 -13 1 -24 0 -24 -2z"/>
<path d="M1357 1733 c-4 -3 -7 -11 -7 -17 0 -6 5 -5 12 2 6 6 9 14 7 17 -3 3
-9 2 -12 -2z"/>
<path d="M2110 1699 c0 -5 5 -7 10 -4 6 3 10 8 10 11 0 2 -4 4 -10 4 -5 0 -10
-5 -10 -11z"/>
<path d="M2317 1688 c-22 -16 -26 -25 -20 -46 l6 -26 -28 18 c-15 10 -25 13
-21 8 4 -6 -2 -15 -11 -21 -10 -5 -15 -12 -12 -16 4 -3 13 1 21 8 10 11 19 12
32 5 14 -8 19 -5 23 11 3 11 10 18 16 14 6 -3 7 -1 3 5 -4 7 -2 20 4 29 11 16
11 16 6 1 -3 -10 0 -20 6 -24 7 -5 8 -2 3 6 -6 9 -2 10 16 5 23 -7 24 -7 4 9
-23 18 -13 21 16 6 10 -6 19 -8 19 -6 0 3 -12 12 -28 20 -25 13 -30 12 -55 -6z
m-4 -23 c-3 -9 -8 -14 -10 -11 -3 3 -2 9 2 15 9 16 15 13 8 -4z"/>
<path d="M2420 1706 c0 -2 8 -10 18 -17 15 -13 16 -12 3 4 -13 16 -21 21 -21
13z"/>
<path d="M1340 1635 c0 -8 2 -15 4 -15 2 0 6 7 10 15 3 8 1 15 -4 15 -6 0 -10
-7 -10 -15z"/>
<path d="M1781 1615 c-13 -19 -27 -33 -31 -32 -4 1 -9 -2 -10 -8 -1 -5 -6 -15
-11 -22 -16 -19 10 -27 31 -8 14 13 19 13 24 3 4 -9 5 -9 5 2 -2 31 1 41 13
34 7 -4 8 -3 4 5 -4 6 -12 9 -17 6 -5 -4 -9 -1 -9 4 0 15 23 14 40 -1 12 -11
12 -10 1 4 -11 15 -10 17 8 15 13 -1 21 -8 21 -19 0 -9 4 -19 9 -22 6 -4 6 5
2 21 -5 16 -14 27 -21 25 -8 -2 -10 3 -6 14 5 14 4 15 -8 5 -9 -8 -15 -8 -18
-2 -1 6 -14 -5 -27 -24z m-6 -44 c-3 -6 -16 -16 -28 -23 -19 -10 -20 -9 -10 4
7 8 9 19 5 23 -4 5 -2 5 5 1 6 -3 15 -1 18 5 4 5 9 8 12 5 3 -2 2 -9 -2 -15z"/>
<path d="M1919 1648 c-5 -18 -6 -38 -1 -34 7 8 12 36 6 36 -2 0 -4 -1 -5 -2z"/>
<path d="M1326 1601 c-19 -7 -19 -8 0 -13 13 -3 21 0 21 8 0 8 -1 14 -1 13 -1
0 -10 -4 -20 -8z"/>
<path d="M1876 1598 c3 -5 10 -6 15 -3 13 9 11 12 -6 12 -8 0 -12 -4 -9 -9z"/>
<path d="M2198 1579 c-9 -16 -13 -29 -7 -29 6 0 7 -5 3 -12 -4 -7 -3 -8 5 -4
6 4 9 11 6 16 -3 5 -1 19 5 31 18 32 7 31 -12 -2z"/>
<path d="M2260 1600 c-9 -6 -10 -10 -3 -10 6 0 15 5 18 10 8 12 4 12 -15 0z"/>
<path d="M2310 1601 c0 -6 4 -12 8 -15 5 -3 9 1 9 9 0 8 -4 15 -9 15 -4 0 -8
-4 -8 -9z"/>
<path d="M2279 1588 c-5 -18 -6 -38 -1 -34 7 8 12 36 6 36 -2 0 -4 -1 -5 -2z"/>
<path d="M1305 1570 c-3 -6 1 -7 9 -4 18 7 21 14 7 14 -6 0 -13 -4 -16 -10z"/>
<path d="M1810 1570 c-9 -6 -10 -10 -3 -10 6 0 15 5 18 10 8 12 4 12 -15 0z"/>
<path d="M1305 1539 c-11 -16 -1 -19 13 -3 7 8 8 14 3 14 -5 0 -13 -5 -16 -11z"/>
<path d="M2225 1540 c-3 -6 1 -7 9 -4 18 7 21 14 7 14 -6 0 -13 -4 -16 -10z"/>
<path d="M1752 1521 c-11 -7 -10 -9 3 -14 11 -5 14 -3 9 5 -5 8 -2 9 10 5 10
-4 15 -3 11 3 -7 12 -16 12 -33 1z"/>
<path d="M1285 1500 c-3 -5 -2 -10 4 -10 5 0 13 5 16 10 3 6 2 10 -4 10 -5 0
-13 -4 -16 -10z"/>
<path d="M1705 1501 c-3 -5 -1 -12 5 -16 5 -3 10 -3 10 1 0 3 6 1 14 -5 11 -9
16 -9 22 0 4 8 3 9 -5 5 -6 -4 -14 0 -17 8 -7 18 -20 21 -29 7z"/>
<path d="M2175 1500 c3 -5 8 -10 11 -10 2 0 4 5 4 10 0 6 -5 10 -11 10 -5 0
-7 -4 -4 -10z"/>
<path d="M1353 1485 c0 -8 4 -12 9 -9 5 3 6 10 3 15 -9 13 -12 11 -12 -6z"/>
<path d="M1279 1473 c-1 -5 -2 -12 -3 -18 0 -5 -7 -20 -13 -32 -10 -17 -10
-21 0 -19 17 3 54 25 42 26 -6 0 -16 -5 -23 -12 -9 -9 -12 -9 -12 -1 0 7 4 14
9 18 6 3 9 14 8 25 -1 20 -6 27 -8 13z"/>
<path d="M1308 1463 c7 -3 16 -2 19 1 4 3 -2 6 -13 5 -11 0 -14 -3 -6 -6z"/>
<path d="M1727 1439 c7 -7 15 -10 18 -7 3 3 -2 9 -12 12 -14 6 -15 5 -6 -5z"/>
<path d="M1500 1286 c0 -2 8 -10 18 -17 15 -13 16 -12 3 4 -13 16 -21 21 -21
13z"/>
<path d="M1355 1260 c-3 -5 -3 -10 2 -10 4 0 1 -5 -7 -11 -12 -8 -12 -10 -1
-7 8 2 15 12 17 21 3 19 -2 22 -11 7z"/>
<path d="M1510 1239 c0 -5 5 -7 10 -4 6 3 10 8 10 11 0 2 -4 4 -10 4 -5 0 -10
-5 -10 -11z"/>
<path d="M1385 1200 c-3 -6 1 -7 9 -4 18 7 21 14 7 14 -6 0 -13 -4 -16 -10z"/>
<path d="M1546 1198 c3 -4 12 -8 20 -8 8 0 14 4 14 8 0 4 -9 8 -19 8 -11 0
-17 -4 -15 -8z"/>
<path d="M1350 1191 c0 -5 7 -12 16 -15 14 -5 15 -4 4 9 -14 17 -20 19 -20 6z"/>
<path d="M1306 1153 c-3 -10 -6 -22 -7 -28 0 -5 -5 -17 -9 -26 -6 -11 -5 -16
5 -16 8 0 14 3 13 6 -2 22 4 31 15 25 7 -5 6 0 -3 11 -11 14 -12 19 -2 22 14
5 16 23 3 23 -5 0 -12 -8 -15 -17z"/>
<path d="M1586 1162 c-3 -5 1 -9 9 -9 8 0 15 4 15 9 0 4 -4 8 -9 8 -6 0 -12
-4 -15 -8z"/>
<path d="M1336 1141 c-4 -5 3 -7 14 -4 23 6 26 13 6 13 -8 0 -17 -4 -20 -9z"/>
<path d="M1629 1138 c7 -9 9 -23 5 -30 -6 -10 -4 -11 7 0 11 10 10 15 -6 30
-17 15 -18 15 -6 0z"/>
<path d="M1760 1068 c-10 -21 -10 -21 3 -5 10 12 17 14 22 7 3 -5 10 -8 15 -5
4 3 10 -2 13 -9 3 -8 1 -17 -6 -20 -9 -3 -9 -5 0 -5 7 -1 18 9 24 22 6 12 8
19 4 15 -5 -4 -14 -3 -22 3 -7 6 -13 8 -13 4 0 -4 -6 -2 -14 4 -12 10 -17 8
-26 -11z"/>
<path d="M1269 1065 c-1 -3 -2 -8 -3 -12 -1 -5 -5 -13 -9 -20 -4 -6 -3 -15 3
-18 6 -4 9 -1 8 7 -2 8 5 12 20 11 12 -2 22 2 22 7 0 6 -3 9 -7 9 -20 -3 -34
2 -28 11 3 6 4 10 1 10 -3 0 -7 -2 -7 -5z"/>
<path d="M1787 1019 c7 -7 15 -10 18 -7 3 3 -2 9 -12 12 -14 6 -15 5 -6 -5z"/>
<path d="M1842 1020 c10 -6 15 -19 13 -30 -2 -12 0 -18 6 -15 5 4 7 11 4 16
-4 5 -1 9 6 9 7 0 4 7 -7 15 -10 8 -23 14 -29 14 -5 0 -2 -4 7 -9z"/>
<path d="M393 985 c0 -8 4 -15 9 -15 4 0 8 4 8 9 0 6 -4 12 -8 15 -5 3 -9 -1
-9 -9z"/>
<path d="M670 970 c-7 -4 -9 -14 -6 -21 4 -8 1 -6 -6 3 -13 15 -15 15 -28 -5
-8 -12 -15 -24 -15 -27 0 -3 -5 -12 -10 -20 -13 -20 -15 -40 -5 -40 9 0 24 30
22 43 -1 4 7 7 18 7 11 0 20 5 20 11 0 5 4 8 9 4 6 -3 8 4 6 15 -4 20 9 25 45
20 22 -3 6 10 -17 14 -11 3 -26 1 -33 -4z m-19 -43 c-13 -13 -26 -3 -16 12 3
6 11 8 17 5 6 -4 6 -10 -1 -17z"/>
<path d="M1990 920 c0 -5 5 -10 11 -10 5 0 7 5 4 10 -3 6 -8 10 -11 10 -2 0
-4 -4 -4 -10z"/>
<path d="M2045 910 c10 -11 20 -20 22 -20 2 0 -2 9 -9 20 -7 11 -17 20 -22 20
-5 0 -1 -9 9 -20z"/>
<path d="M797 909 c7 -7 15 -10 18 -7 3 3 -2 9 -12 12 -14 6 -15 5 -6 -5z"/>
<path d="M670 900 c0 -5 5 -10 10 -10 6 0 10 5 10 10 0 6 -4 10 -10 10 -5 0
-10 -4 -10 -10z"/>
<path d="M2020 906 c0 -2 8 -10 18 -17 15 -13 16 -12 3 4 -13 16 -21 21 -21
13z"/>
<path d="M635 879 c-11 -16 -1 -19 13 -3 7 8 8 14 3 14 -5 0 -13 -5 -16 -11z"/>
<path d="M820 886 c0 -2 8 -10 18 -17 15 -13 16 -12 3 4 -13 16 -21 21 -21 13z"/>
<path d="M1990 879 c0 -5 5 -7 10 -4 6 3 10 8 10 11 0 2 -4 4 -10 4 -5 0 -10
-5 -10 -11z"/>
<path d="M2060 859 c0 -5 5 -7 10 -4 6 3 10 8 10 11 0 2 -4 4 -10 4 -5 0 -10
-5 -10 -11z"/>
<path d="M1114 840 c0 -13 4 -16 10 -10 7 7 7 13 0 20 -6 6 -10 3 -10 -10z"/>
<path d="M1155 849 c-4 -6 -5 -12 -2 -15 2 -3 7 2 10 11 7 17 1 20 -8 4z"/>
<path d="M550 780 c0 -5 5 -10 11 -10 5 0 7 5 4 10 -3 6 -8 10 -11 10 -2 0 -4
-4 -4 -10z"/>
<path d="M1073 766 l-18 -21 24 20 c13 11 25 19 28 17 3 -2 7 -2 9 1 2 2 -3 4
-11 4 -8 0 -23 -10 -32 -21z"/>
<path d="M534 763 c4 -7 -2 -16 -13 -22 -10 -6 -22 -18 -25 -28 -5 -13 -1 -11
15 6 22 23 23 23 30 5 7 -15 8 -13 6 8 -2 15 -7 31 -12 35 -4 4 -5 3 -1 -4z"/>
<path d="M1070 737 c-20 -16 -22 -34 -5 -41 10 -3 12 0 8 11 -4 9 1 21 12 29
10 8 15 14 9 14 -5 0 -16 -6 -24 -13z"/>
<path d="M514 699 c-3 -6 -1 -16 5 -22 9 -9 10 -7 5 7 -6 15 -4 17 6 11 9 -5
11 -4 6 3 -9 15 -13 15 -22 1z"/>
<path d="M2290 700 c0 -5 5 -10 11 -10 5 0 7 5 4 10 -3 6 -8 10 -11 10 -2 0
-4 -4 -4 -10z"/>
<path d="M566 682 c-3 -5 1 -9 9 -9 8 0 12 4 9 9 -3 4 -7 8 -9 8 -2 0 -6 -4
-9 -8z"/>
<path d="M2276 635 c-11 -8 -15 -15 -9 -15 6 0 16 7 23 15 16 19 11 19 -14 0z"/>
<path d="M1175 600 c-3 -5 -1 -10 4 -10 6 0 11 5 11 10 0 6 -2 10 -4 10 -3 0
-8 -4 -11 -10z"/>
<path d="M430 586 c0 -2 7 -9 15 -16 13 -11 14 -10 9 4 -5 14 -24 23 -24 12z"/>
<path d="M1202 578 c-15 -15 -15 -28 0 -28 6 0 8 3 5 7 -4 3 -2 12 4 20 14 16
7 17 -9 1z"/>
<path d="M2296 582 c-3 -5 1 -9 9 -9 8 0 12 4 9 9 -3 4 -7 8 -9 8 -2 0 -6 -4
-9 -8z"/>
<path d="M2245 570 c-16 -7 -17 -9 -3 -9 9 -1 20 4 23 9 7 11 7 11 -20 0z"/>
<path d="M1148 553 c6 -2 10 -9 7 -13 -3 -5 0 -12 6 -16 8 -5 9 -3 4 6 -6 10
-3 12 11 7 18 -7 18 -7 0 8 -11 8 -25 15 -30 14 -6 0 -5 -3 2 -6z"/>
<path d="M420 520 c-12 -7 -10 -9 7 -7 12 0 19 5 17 9 -6 10 -6 10 -24 -2z"/>
<path d="M1119 513 c-10 -12 -10 -14 -1 -9 6 4 12 4 12 1 0 -8 -32 -41 -37
-37 -11 8 -15 0 -4 -10 10 -11 14 -10 22 4 5 9 15 16 22 14 6 -1 9 -1 5 1 -5
3 -3 13 2 23 13 25 -4 35 -21 13z"/>
<path d="M2265 520 c-3 -6 1 -7 9 -4 18 7 21 14 7 14 -6 0 -13 -4 -16 -10z"/>
<path d="M380 500 c0 -5 9 -14 20 -20 11 -6 17 -16 14 -22 -4 -7 -3 -8 4 -4 9
5 7 14 -4 32 -17 24 -34 32 -34 14z"/>
<path d="M1155 500 c-3 -5 -1 -10 4 -10 6 0 11 5 11 10 0 6 -2 10 -4 10 -3 0
-8 -4 -11 -10z"/>
<path d="M1196 487 c3 -10 9 -15 12 -12 3 3 0 11 -7 18 -10 9 -11 8 -5 -6z"/>
<path d="M2233 485 c0 -8 4 -12 9 -9 5 3 6 10 3 15 -9 13 -12 11 -12 -6z"/>
<path d="M354 454 c-18 -14 -18 -14 6 -3 31 14 36 19 24 19 -6 0 -19 -7 -30
-16z"/>
<path d="M1170 459 c0 -5 5 -7 10 -4 6 3 10 8 10 11 0 2 -4 4 -10 4 -5 0 -10
-5 -10 -11z"/>
<path d="M2179 463 c-1 -2 -2 -6 -3 -10 -1 -5 -5 -14 -9 -20 -5 -7 -5 -13 0
-13 4 0 1 -5 -7 -10 -8 -5 -10 -10 -4 -10 13 0 41 30 28 30 -5 1 1 9 14 20 22
18 22 19 2 17 -11 -1 -21 -3 -21 -4z"/>
<path d="M372 441 c-11 -7 -10 -9 3 -14 9 -4 14 -3 10 2 -3 5 1 12 7 14 7 3 9
6 3 6 -5 0 -16 -3 -23 -8z"/>
<path d="M1066 435 c-4 -11 -2 -14 6 -9 8 5 9 2 5 -9 -3 -9 -2 -19 3 -22 4 -3
7 6 5 20 -3 32 -11 40 -19 20z"/>
<path d="M2213 435 c0 -8 4 -12 9 -9 4 3 8 9 8 15 0 5 -4 9 -8 9 -5 0 -9 -7
-9 -15z"/>
<path d="M1108 433 c7 -3 16 -2 19 1 4 3 -2 6 -13 5 -11 0 -14 -3 -6 -6z"/>
<path d="M334 408 c0 -12 7 -23 14 -24 7 -1 8 0 2 3 -16 8 -12 23 8 23 14 0
15 2 2 10 -22 14 -27 12 -26 -12z"/>
<path d="M312 385 c4 -18 -13 -55 -22 -50 -5 3 -14 -4 -20 -16 -8 -13 -8 -19
-2 -15 6 4 15 -2 21 -11 6 -10 11 -13 11 -6 0 6 -4 15 -10 18 -5 3 -10 11 -10
17 0 7 4 7 13 0 8 -7 18 -7 27 -2 12 8 12 10 2 10 -8 0 -12 6 -9 13 2 6 11 11
21 9 9 -2 16 3 16 9 0 7 -3 9 -7 6 -3 -4 -12 1 -20 11 -7 9 -12 13 -11 7z"/>
<path d="M370 379 c0 -5 5 -7 10 -4 6 3 10 8 10 11 0 2 -4 4 -10 4 -5 0 -10
-5 -10 -11z"/>
<path d="M999 364 c-17 -20 -20 -42 -8 -50 5 -3 8 -1 7 4 -2 5 6 18 17 28 11
11 16 16 11 12 -18 -14 -29 -8 -16 7 7 8 10 15 7 15 -2 0 -11 -7 -18 -16z"/>
<path d="M1075 369 c-4 -6 -5 -12 -2 -15 2 -3 7 2 10 11 7 17 1 20 -8 4z"/>
<path d="M2193 365 c0 -8 4 -12 9 -9 5 3 6 10 3 15 -9 13 -12 11 -12 -6z"/>
<path d="M2159 353 c-13 -16 -12 -17 4 -4 16 13 21 21 13 21 -2 0 -10 -8 -17
-17z"/>
<path d="M830 319 c0 -5 5 -7 10 -4 6 3 10 8 10 11 0 2 -4 4 -10 4 -5 0 -10
-5 -10 -11z"/>
<path d="M915 320 c-17 -7 -17 -9 -2 -9 9 -1 17 -5 17 -11 0 -5 5 -10 11 -10
8 0 9 4 0 13 -6 8 -8 17 -4 20 8 9 3 8 -22 -3z"/>
<path d="M2121 316 c-9 -11 -9 -16 1 -22 7 -4 10 -4 6 1 -4 4 -3 14 3 22 6 7
9 13 6 13 -2 0 -10 -6 -16 -14z"/>
<path d="M330 300 c0 -5 5 -10 11 -10 5 0 7 5 4 10 -3 6 -8 10 -11 10 -2 0 -4
-4 -4 -10z"/>
<path d="M970 300 c0 -5 5 -10 11 -10 5 0 7 5 4 10 -3 6 -8 10 -11 10 -2 0 -4
-4 -4 -10z"/>
<path d="M1996 295 c-3 -9 -2 -24 2 -32 8 -13 10 -13 16 2 3 9 2 24 -2 32 -8
13 -10 13 -16 -2z"/>
<path d="M242 264 c-7 -14 -17 -22 -22 -19 -6 4 -7 -1 -3 -10 5 -14 10 -11 26
15 11 17 17 33 15 35 -3 3 -10 -6 -16 -21z"/>
<path d="M1300 286 c0 -2 8 -10 18 -17 15 -13 16 -12 3 4 -13 16 -21 21 -21
13z"/>
<path d="M2030 279 c0 -5 5 -7 10 -4 6 3 10 8 10 11 0 2 -4 4 -10 4 -5 0 -10
-5 -10 -11z"/>
<path d="M2068 283 c7 -3 16 -2 19 1 4 3 -2 6 -13 5 -11 0 -14 -3 -6 -6z"/>
<path d="M1350 260 c0 -5 5 -10 11 -10 5 0 7 5 4 10 -3 6 -8 10 -11 10 -2 0
-4 -4 -4 -10z"/>
<path d="M1981 244 c0 -11 3 -14 6 -6 3 7 2 16 -1 19 -3 4 -6 -2 -5 -13z"/>
<path d="M255 239 c-11 -16 -1 -19 13 -3 7 8 8 14 3 14 -5 0 -13 -5 -16 -11z"/>
<path d="M1310 239 c0 -5 5 -7 10 -4 6 3 10 8 10 11 0 2 -4 4 -10 4 -5 0 -10
-5 -10 -11z"/>
<path d="M1375 240 c-5 -9 -4 -11 3 -6 7 4 12 3 12 -3 0 -6 10 -16 23 -22 19
-10 20 -9 7 2 -8 8 -19 20 -26 28 -9 11 -12 12 -19 1z"/>
<path d="M1940 225 c-8 -9 -8 -15 0 -20 6 -4 10 -3 9 2 -3 20 2 25 16 13 9 -7
17 -11 20 -9 2 3 -4 10 -15 16 -14 10 -21 9 -30 -2z"/>
<path d="M153 209 c-2 -23 3 -25 10 -4 4 8 3 16 -1 19 -4 3 -9 -4 -9 -15z"/>
<path d="M196 221 c-7 -11 22 -36 31 -28 3 4 -2 9 -11 13 -9 3 -13 10 -10 15
3 5 3 9 0 9 -3 0 -7 -4 -10 -9z"/>
<path d="M1350 199 c0 -5 5 -7 10 -4 6 3 10 8 10 11 0 2 -4 4 -10 4 -5 0 -10
-5 -10 -11z"/>
<path d="M1890 199 c0 -5 4 -8 9 -4 6 3 14 -3 20 -12 6 -10 11 -13 11 -8 0 13
-20 35 -32 35 -4 0 -8 -5 -8 -11z"/>
<path d="M1428 183 c6 -2 9 -10 6 -15 -4 -7 -2 -8 4 -4 18 11 14 26 -5 25 -11
0 -13 -3 -5 -6z"/>
<path d="M1476 173 c-6 -14 -5 -15 5 -6 7 7 10 15 7 18 -3 3 -9 -2 -12 -12z"/>
<path d="M1543 173 c-22 -8 -14 -19 12 -19 14 0 25 3 25 7 0 10 -23 17 -37 12z"/>
<path d="M1495 160 c-3 -6 1 -7 9 -4 18 7 21 14 7 14 -6 0 -13 -4 -16 -10z"/>
<path d="M1666 162 c-3 -5 1 -9 9 -9 8 0 12 4 9 9 -3 4 -7 8 -9 8 -2 0 -6 -4
-9 -8z"/>
<path d="M1706 162 c-2 -4 4 -8 14 -8 10 0 16 4 14 8 -3 4 -9 8 -14 8 -5 0
-11 -4 -14 -8z"/>
<path d="M1616 151 c-4 -5 3 -7 14 -4 23 6 26 13 6 13 -8 0 -17 -4 -20 -9z"/>
<path d="M1750 149 c0 -5 5 -7 10 -4 6 3 10 8 10 11 0 2 -4 4 -10 4 -5 0 -10
-5 -10 -11z"/>
</g>
</svg>
