<?xml version="1.0" encoding="iso-8859-1"?>
<!-- Generator: Adobe Illustrator 19.0.0, SVG Export Plug-In . SVG Version: 6.00 Build 0)  -->
<svg xmlns="http://www.w3.org/2000/svg" xmlns:xlink="http://www.w3.org/1999/xlink" version="1.1" id="Capa_1" x="0px" y="0px" viewBox="0 0 490 490" style="enable-background:new 0 0 490 490;" xml:space="preserve" width="512px" height="512px">
<path d="M442.679,193.985L490,163.559l-11.506-17.881l-47.977,30.85L379.634,46.229H110.362L59.478,176.527l-47.972-30.85L0,163.559  l47.316,30.427C28.041,202.759,14.6,222.189,14.6,244.71v74.67c0,27.209,19.613,49.912,45.44,54.747v18.555  c0,28.171,22.918,51.089,51.089,51.089c28.166,0,51.084-22.918,51.084-51.089v-17.591h165.567v17.591  c0,28.171,22.918,51.089,51.089,51.089c28.166,0,51.084-22.918,51.084-51.089v-18.545c16.554-3.085,30.984-13.534,39.039-28.797  c4.184-7.942,6.401-16.926,6.401-25.96v-74.67C475.394,222.189,461.953,202.759,442.679,193.985z M124.889,67.496h109.478v41.018  h21.266V67.496h109.473l47.455,121.503H77.434L124.889,67.496z M140.947,392.682c0,16.448-13.374,29.822-29.818,29.822  c-16.443,0-29.823-13.374-29.823-29.822v-17.591h59.64V392.682z M378.865,422.504c-16.443,0-29.818-13.374-29.818-29.822v-17.591  h59.641v17.591C408.688,409.13,395.308,422.504,378.865,422.504z M454.128,319.38c0,5.67-1.329,11.069-3.946,16.033  c-5.991,11.36-17.674,18.411-30.492,18.411H70.306c-18.988,0-34.439-15.451-34.439-34.444v-74.67  c0-18.993,15.451-34.444,34.439-34.444H419.69c18.987,0,34.438,15.451,34.438,34.444V319.38z" fill="#ffdd30"/>
<path d="M387.12,244.023c-23.618,0-42.828,19.211-42.828,42.834c0,17.248,10.264,32.741,26.151,39.46  c5.275,2.231,10.887,3.364,16.677,3.364c15.426,0,29.724-8.35,37.315-21.796c3.613-6.387,5.519-13.666,5.519-21.028  C429.954,263.234,410.739,244.023,387.12,244.023z M405.92,297.429c-5.27,9.335-17.553,13.375-27.19,9.305  c-8-3.386-13.171-11.185-13.171-19.876c0-11.889,9.672-21.567,21.562-21.567c11.894,0,21.567,9.679,21.567,21.567  C408.688,290.565,407.733,294.22,405.92,297.429z" fill="#ffdd30"/>
<path d="M102.874,244.023c-23.617,0-42.834,19.211-42.834,42.834c0,23.613,19.216,42.824,42.834,42.824  c23.618,0,42.835-19.211,42.835-42.824C145.709,263.234,126.492,244.023,102.874,244.023z M102.874,308.415  c-11.894,0-21.567-9.667-21.567-21.558c0-11.889,9.673-21.567,21.567-21.567c11.895,0,21.568,9.679,21.568,21.567  C124.442,298.748,114.769,308.415,102.874,308.415z" fill="#ffdd30"/>
<rect x="206.164" y="276.225" width="77.667" height="21.267" fill="#ffdd30"/>
<g>
</g>
<g>
</g>
<g>
</g>
<g>
</g>
<g>
</g>
<g>
</g>
<g>
</g>
<g>
</g>
<g>
</g>
<g>
</g>
<g>
</g>
<g>
</g>
<g>
</g>
<g>
</g>
<g>
</g>
</svg>
